<?xml version="1.0" encoding="UTF-8" standalone="no"?>
<!DOCTYPE svg PUBLIC "-//W3C//DTD SVG 1.1//EN"
 "http://www.w3.org/Graphics/SVG/1.1/DTD/svg11.dtd">
<!-- Generated by graphviz version 6.0.1 (20220911.1526)
 -->
<!-- Pages: 1 -->
<svg width="553pt" height="476pt"
 viewBox="0.00 0.00 552.75 476.00" xmlns="http://www.w3.org/2000/svg" xmlns:xlink="http://www.w3.org/1999/xlink">
<g id="graph0" class="graph" transform="scale(1 1) rotate(0) translate(4 472)">
<polygon fill="white" stroke="none" points="-4,4 -4,-472 548.75,-472 548.75,4 -4,4"/>
<!-- 13079666725412016105 -->
<g id="node1" class="node">
<title>13079666725412016105</title>
<polygon fill="none" stroke="black" points="379.25,-396 187.25,-396 187.25,-360 379.25,-360 379.25,-396"/>
<text text-anchor="middle" x="283.25" y="-374.3" font-family="Times,serif" font-size="14.00">def largestElemInList(#): # # #₀</text>
</g>
<!-- 13188294978844907040 -->
<g id="node2" class="node">
<title>13188294978844907040</title>
<polygon fill="none" stroke="black" points="153.25,-324 99.25,-324 99.25,-288 153.25,-288 153.25,-324"/>
<text text-anchor="middle" x="126.25" y="-302.3" font-family="Times,serif" font-size="14.00"># = #₁</text>
</g>
<!-- 13079666725412016105&#45;&gt;13188294978844907040 -->
<g id="edge1" class="edge">
<title>13079666725412016105&#45;&gt;13188294978844907040</title>
<path fill="none" stroke="black" d="M244.84,-359.88C219.84,-348.73 187.42,-334.27 162.79,-323.29"/>
<polygon fill="black" stroke="black" points="163.99,-320 153.44,-319.12 161.14,-326.39 163.99,-320"/>
</g>
<!-- 11104757326948013190 -->
<g id="node3" class="node">
<title>11104757326948013190</title>
<polygon fill="none" stroke="black" points="346.75,-324 281.75,-324 281.75,-288 346.75,-288 346.75,-324"/>
<text text-anchor="middle" x="314.25" y="-302.3" font-family="Times,serif" font-size="14.00">return #₃</text>
</g>
<!-- 13079666725412016105&#45;&gt;11104757326948013190 -->
<g id="edge2" class="edge">
<title>13079666725412016105&#45;&gt;11104757326948013190</title>
<path fill="none" stroke="black" d="M290.91,-359.7C294.44,-351.73 298.71,-342.1 302.62,-333.26"/>
<polygon fill="black" stroke="black" points="305.83,-334.67 306.68,-324.1 299.43,-331.83 305.83,-334.67"/>
</g>
<!-- 10854739328216220316 -->
<g id="node4" class="node">
<title>10854739328216220316</title>
<ellipse fill="none" stroke="black" cx="226.25" cy="-90" rx="27" ry="18"/>
<text text-anchor="middle" x="226.25" y="-86.3" font-family="Times,serif" font-size="14.00">l₀</text>
</g>
<!-- 13079666725412016105&#45;&gt;10854739328216220316 -->
<g id="edge3" class="edge">
<title>13079666725412016105&#45;&gt;10854739328216220316</title>
<path fill="none" stroke="black" d="M279.64,-359.82C277.47,-349.45 274.68,-335.97 272.25,-324 257.16,-249.49 239.95,-161.45 231.5,-118.01"/>
<polygon fill="black" stroke="black" points="234.89,-117.12 229.54,-107.97 228.02,-118.45 234.89,-117.12"/>
</g>
<!-- 10960043388676969493 -->
<g id="node5" class="node">
<title>10960043388676969493</title>
<polygon fill="none" stroke="black" points="449.25,-324 395.25,-324 395.25,-288 449.25,-288 449.25,-324"/>
<text text-anchor="middle" x="422.25" y="-302.3" font-family="Times,serif" font-size="14.00">#(#)₂</text>
</g>
<!-- 13079666725412016105&#45;&gt;10960043388676969493 -->
<g id="edge4" class="edge">
<title>13079666725412016105&#45;&gt;10960043388676969493</title>
<path fill="none" stroke="black" d="M317.25,-359.88C338.12,-349.37 364.82,-335.92 386.07,-325.22"/>
<polygon fill="black" stroke="black" points="387.75,-328.29 395.11,-320.67 384.6,-322.04 387.75,-328.29"/>
</g>
<!-- 12137670065752218748 -->
<g id="node6" class="node">
<title>12137670065752218748</title>
<ellipse fill="none" stroke="black" cx="352.25" cy="-18" rx="27" ry="18"/>
<text text-anchor="middle" x="352.25" y="-14.3" font-family="Times,serif" font-size="14.00">inp₀</text>
</g>
<!-- 13188294978844907040&#45;&gt;12137670065752218748 -->
<g id="edge5" class="edge">
<title>13188294978844907040&#45;&gt;12137670065752218748</title>
<path fill="none" stroke="black" d="M102.95,-287.86C75.96,-266.29 33.25,-226.39 18.25,-180 3.48,-134.33 -12.92,-108.5 18.25,-72 56.03,-27.76 235.48,-20.25 314.61,-19.12"/>
<polygon fill="black" stroke="black" points="315.13,-22.61 325.09,-19 315.05,-15.61 315.13,-22.61"/>
</g>
<!-- 9381436057513814817 -->
<g id="node7" class="node">
<title>9381436057513814817</title>
<polygon fill="none" stroke="black" points="172.75,-252 79.75,-252 79.75,-216 172.75,-216 172.75,-252"/>
<text text-anchor="middle" x="126.25" y="-230.3" font-family="Times,serif" font-size="14.00">[# for # in #]₁</text>
</g>
<!-- 13188294978844907040&#45;&gt;9381436057513814817 -->
<g id="edge6" class="edge">
<title>13188294978844907040&#45;&gt;9381436057513814817</title>
<path fill="none" stroke="black" d="M126.25,-287.7C126.25,-279.98 126.25,-270.71 126.25,-262.11"/>
<polygon fill="black" stroke="black" points="129.75,-262.1 126.25,-252.1 122.75,-262.1 129.75,-262.1"/>
</g>
<!-- 13818204071184319297 -->
<g id="node8" class="node">
<title>13818204071184319297</title>
<polygon fill="none" stroke="black" points="341.25,-252 287.25,-252 287.25,-216 341.25,-216 341.25,-252"/>
<text text-anchor="middle" x="314.25" y="-230.3" font-family="Times,serif" font-size="14.00">#[#]₀</text>
</g>
<!-- 11104757326948013190&#45;&gt;13818204071184319297 -->
<g id="edge7" class="edge">
<title>11104757326948013190&#45;&gt;13818204071184319297</title>
<path fill="none" stroke="black" d="M314.25,-287.7C314.25,-279.98 314.25,-270.71 314.25,-262.11"/>
<polygon fill="black" stroke="black" points="317.75,-262.1 314.25,-252.1 310.75,-262.1 317.75,-262.1"/>
</g>
<!-- 13542225929208680552 -->
<g id="node13" class="node">
<title>13542225929208680552</title>
<polygon fill="none" stroke="black" points="449.25,-252 395.25,-252 395.25,-216 449.25,-216 449.25,-252"/>
<text text-anchor="middle" x="422.25" y="-230.3" font-family="Times,serif" font-size="14.00">#.sort₀</text>
</g>
<!-- 10960043388676969493&#45;&gt;13542225929208680552 -->
<g id="edge12" class="edge">
<title>10960043388676969493&#45;&gt;13542225929208680552</title>
<path fill="none" stroke="black" d="M422.25,-287.7C422.25,-279.98 422.25,-270.71 422.25,-262.11"/>
<polygon fill="black" stroke="black" points="425.75,-262.1 422.25,-252.1 418.75,-262.1 425.75,-262.1"/>
</g>
<!-- 9647757082708266373 -->
<g id="node14" class="node">
<title>9647757082708266373</title>
<polygon fill="none" stroke="black" points="544.75,-252 467.75,-252 467.75,-216 544.75,-216 544.75,-252"/>
<text text-anchor="middle" x="506.25" y="-230.3" font-family="Times,serif" font-size="14.00">reverse=#₁</text>
</g>
<!-- 10960043388676969493&#45;&gt;9647757082708266373 -->
<g id="edge13" class="edge">
<title>10960043388676969493&#45;&gt;9647757082708266373</title>
<path fill="none" stroke="black" d="M443.02,-287.7C453.49,-278.97 466.36,-268.24 477.75,-258.75"/>
<polygon fill="black" stroke="black" points="480.28,-261.19 485.73,-252.1 475.8,-255.82 480.28,-261.19"/>
</g>
<!-- 12768470170402484023 -->
<g id="node10" class="node">
<title>12768470170402484023</title>
<polygon fill="none" stroke="black" points="81.25,-180 27.25,-180 27.25,-144 81.25,-144 81.25,-180"/>
<text text-anchor="middle" x="54.25" y="-158.3" font-family="Times,serif" font-size="14.00">#(#)₀</text>
</g>
<!-- 9381436057513814817&#45;&gt;12768470170402484023 -->
<g id="edge9" class="edge">
<title>9381436057513814817&#45;&gt;12768470170402484023</title>
<path fill="none" stroke="black" d="M108.45,-215.7C99.65,-207.14 88.87,-196.66 79.25,-187.3"/>
<polygon fill="black" stroke="black" points="81.45,-184.57 71.84,-180.1 76.57,-189.58 81.45,-184.57"/>
</g>
<!-- 13011393375332641361 -->
<g id="node11" class="node">
<title>13011393375332641361</title>
<ellipse fill="none" stroke="black" cx="126.25" cy="-162" rx="27" ry="18"/>
<text text-anchor="middle" x="126.25" y="-158.3" font-family="Times,serif" font-size="14.00">i₁</text>
</g>
<!-- 9381436057513814817&#45;&gt;13011393375332641361 -->
<g id="edge10" class="edge">
<title>9381436057513814817&#45;&gt;13011393375332641361</title>
<path fill="none" stroke="black" d="M126.25,-215.7C126.25,-207.98 126.25,-198.71 126.25,-190.11"/>
<polygon fill="black" stroke="black" points="129.75,-190.1 126.25,-180.1 122.75,-190.1 129.75,-190.1"/>
</g>
<!-- 11563185957524914904 -->
<g id="node12" class="node">
<title>11563185957524914904</title>
<ellipse fill="none" stroke="black" cx="198.25" cy="-162" rx="27" ry="18"/>
<text text-anchor="middle" x="198.25" y="-158.3" font-family="Times,serif" font-size="14.00">l₂</text>
</g>
<!-- 9381436057513814817&#45;&gt;11563185957524914904 -->
<g id="edge11" class="edge">
<title>9381436057513814817&#45;&gt;11563185957524914904</title>
<path fill="none" stroke="black" d="M144.05,-215.7C153.74,-206.28 165.82,-194.53 176.11,-184.53"/>
<polygon fill="black" stroke="black" points="178.83,-186.76 183.56,-177.28 173.95,-181.74 178.83,-186.76"/>
</g>
<!-- 13554456703105844443 -->
<g id="node15" class="node">
<title>13554456703105844443</title>
<ellipse fill="none" stroke="black" cx="380.25" cy="-162" rx="27" ry="18"/>
<text text-anchor="middle" x="380.25" y="-158.3" font-family="Times,serif" font-size="14.00">inp₀</text>
</g>
<!-- 13818204071184319297&#45;&gt;13554456703105844443 -->
<g id="edge14" class="edge">
<title>13818204071184319297&#45;&gt;13554456703105844443</title>
<path fill="none" stroke="black" d="M330.57,-215.7C339.24,-206.5 350,-195.08 359.29,-185.23"/>
<polygon fill="black" stroke="black" points="362.04,-187.42 366.36,-177.74 356.95,-182.61 362.04,-187.42"/>
</g>
<!-- 10140522907067168602 -->
<g id="node16" class="node">
<title>10140522907067168602</title>
<ellipse fill="none" stroke="black" cx="308.25" cy="-162" rx="27" ry="18"/>
<text text-anchor="middle" x="308.25" y="-158.3" font-family="Times,serif" font-size="14.00">0₁</text>
</g>
<!-- 13818204071184319297&#45;&gt;10140522907067168602 -->
<g id="edge15" class="edge">
<title>13818204071184319297&#45;&gt;10140522907067168602</title>
<path fill="none" stroke="black" d="M312.77,-215.7C312.11,-207.98 311.31,-198.71 310.58,-190.11"/>
<polygon fill="black" stroke="black" points="314.06,-189.77 309.72,-180.1 307.08,-190.37 314.06,-189.77"/>
</g>
<!-- 13158853219747933842 -->
<g id="node9" class="node">
<title>13158853219747933842</title>
<polygon fill="none" stroke="black" points="310.25,-468 256.25,-468 256.25,-432 310.25,-432 310.25,-468"/>
<text text-anchor="middle" x="283.25" y="-446.3" font-family="Times,serif" font-size="14.00">#₀</text>
</g>
<!-- 13158853219747933842&#45;&gt;13079666725412016105 -->
<g id="edge8" class="edge">
<title>13158853219747933842&#45;&gt;13079666725412016105</title>
<path fill="none" stroke="black" d="M283.25,-431.7C283.25,-423.98 283.25,-414.71 283.25,-406.11"/>
<polygon fill="black" stroke="black" points="286.75,-406.1 283.25,-396.1 279.75,-406.1 286.75,-406.1"/>
</g>
<!-- 10892703314147731757 -->
<g id="node17" class="node">
<title>10892703314147731757</title>
<ellipse fill="none" stroke="black" cx="54.25" cy="-90" rx="27" ry="18"/>
<text text-anchor="middle" x="54.25" y="-86.3" font-family="Times,serif" font-size="14.00">int₀</text>
</g>
<!-- 12768470170402484023&#45;&gt;10892703314147731757 -->
<g id="edge16" class="edge">
<title>12768470170402484023&#45;&gt;10892703314147731757</title>
<path fill="none" stroke="black" d="M54.25,-143.7C54.25,-135.98 54.25,-126.71 54.25,-118.11"/>
<polygon fill="black" stroke="black" points="57.75,-118.1 54.25,-108.1 50.75,-118.1 57.75,-118.1"/>
</g>
<!-- 12489682598558435276 -->
<g id="node18" class="node">
<title>12489682598558435276</title>
<ellipse fill="none" stroke="black" cx="126.25" cy="-90" rx="27" ry="18"/>
<text text-anchor="middle" x="126.25" y="-86.3" font-family="Times,serif" font-size="14.00">i₁</text>
</g>
<!-- 12768470170402484023&#45;&gt;12489682598558435276 -->
<g id="edge17" class="edge">
<title>12768470170402484023&#45;&gt;12489682598558435276</title>
<path fill="none" stroke="black" d="M72.05,-143.7C81.74,-134.28 93.82,-122.53 104.11,-112.53"/>
<polygon fill="black" stroke="black" points="106.83,-114.76 111.56,-105.28 101.95,-109.74 106.83,-114.76"/>
</g>
<!-- 13011393375332641361&#45;&gt;12489682598558435276 -->
<g id="edge22" class="edge">
<title>13011393375332641361&#45;&gt;12489682598558435276</title>
<path fill="none" stroke="red" d="M126.25,-143.7C126.25,-135.98 126.25,-126.71 126.25,-118.11"/>
<polygon fill="red" stroke="red" points="129.75,-118.1 126.25,-108.1 122.75,-118.1 129.75,-118.1"/>
</g>
<!-- 11563185957524914904&#45;&gt;10854739328216220316 -->
<g id="edge23" class="edge">
<title>11563185957524914904&#45;&gt;10854739328216220316</title>
<path fill="none" stroke="blue" d="M204.89,-144.41C208.16,-136.22 212.2,-126.14 215.87,-116.95"/>
<polygon fill="blue" stroke="blue" points="219.2,-118.05 219.66,-107.47 212.7,-115.45 219.2,-118.05"/>
</g>
<!-- 9323987479745799060 -->
<g id="node19" class="node">
<title>9323987479745799060</title>
<ellipse fill="none" stroke="black" cx="407.25" cy="-90" rx="27" ry="18"/>
<text text-anchor="middle" x="407.25" y="-86.3" font-family="Times,serif" font-size="14.00">inp₀</text>
</g>
<!-- 13542225929208680552&#45;&gt;9323987479745799060 -->
<g id="edge18" class="edge">
<title>13542225929208680552&#45;&gt;9323987479745799060</title>
<path fill="none" stroke="black" d="M421.61,-215.89C420.82,-197.94 419.2,-168.91 416.25,-144 415.25,-135.53 413.81,-126.35 412.39,-118.05"/>
<polygon fill="black" stroke="black" points="415.82,-117.35 410.61,-108.12 408.93,-118.58 415.82,-117.35"/>
</g>
<!-- 11856259795432511134 -->
<g id="node20" class="node">
<title>11856259795432511134</title>
<ellipse fill="none" stroke="black" cx="506.25" cy="-162" rx="31.4" ry="18"/>
<text text-anchor="middle" x="506.25" y="-158.3" font-family="Times,serif" font-size="14.00">True₀</text>
</g>
<!-- 9647757082708266373&#45;&gt;11856259795432511134 -->
<g id="edge19" class="edge">
<title>9647757082708266373&#45;&gt;11856259795432511134</title>
<path fill="none" stroke="black" d="M506.25,-215.7C506.25,-207.98 506.25,-198.71 506.25,-190.11"/>
<polygon fill="black" stroke="black" points="509.75,-190.1 506.25,-180.1 502.75,-190.1 509.75,-190.1"/>
</g>
<!-- 13554456703105844443&#45;&gt;12137670065752218748 -->
<g id="edge20" class="edge">
<title>13554456703105844443&#45;&gt;12137670065752218748</title>
<path fill="none" stroke="blue" d="M376.87,-143.87C372.08,-119.56 363.26,-74.82 357.58,-46.01"/>
<polygon fill="blue" stroke="blue" points="361.01,-45.32 355.64,-36.19 354.14,-46.68 361.01,-45.32"/>
</g>
<!-- 13554456703105844443&#45;&gt;9323987479745799060 -->
<g id="edge21" class="edge">
<title>13554456703105844443&#45;&gt;9323987479745799060</title>
<path fill="none" stroke="red" d="M386.65,-144.41C389.76,-136.34 393.58,-126.43 397.09,-117.35"/>
<polygon fill="red" stroke="red" points="400.38,-118.55 400.71,-107.96 393.85,-116.03 400.38,-118.55"/>
</g>
<!-- 9323987479745799060&#45;&gt;12137670065752218748 -->
<g id="edge24" class="edge">
<title>9323987479745799060&#45;&gt;12137670065752218748</title>
<path fill="none" stroke="blue" d="M395.32,-73.81C388.04,-64.55 378.59,-52.52 370.4,-42.09"/>
<polygon fill="blue" stroke="blue" points="373.09,-39.86 364.16,-34.16 367.59,-44.18 373.09,-39.86"/>
</g>
</g>
</svg>
