<?xml version="1.0" encoding="UTF-8" standalone="no"?>
<!DOCTYPE svg PUBLIC "-//W3C//DTD SVG 1.1//EN"
 "http://www.w3.org/Graphics/SVG/1.1/DTD/svg11.dtd">
<!-- Generated by graphviz version 6.0.1 (20220911.1526)
 -->
<!-- Pages: 1 -->
<svg width="924pt" height="476pt"
 viewBox="0.00 0.00 924.45 476.00" xmlns="http://www.w3.org/2000/svg" xmlns:xlink="http://www.w3.org/1999/xlink">
<g id="graph0" class="graph" transform="scale(1 1) rotate(0) translate(4 472)">
<polygon fill="white" stroke="none" points="-4,4 -4,-472 920.45,-472 920.45,4 -4,4"/>
<!-- 12285994459819902184 -->
<g id="node1" class="node">
<title>12285994459819902184</title>
<polygon fill="none" stroke="black" points="626.95,-468 572.95,-468 572.95,-432 626.95,-432 626.95,-468"/>
<text text-anchor="middle" x="599.95" y="-446.3" font-family="Times,serif" font-size="14.00">#₀</text>
</g>
<!-- 12098252473911357792 -->
<g id="node2" class="node">
<title>12098252473911357792</title>
<polygon fill="none" stroke="black" points="706.45,-396 493.45,-396 493.45,-360 706.45,-360 706.45,-396"/>
<text text-anchor="middle" x="599.95" y="-374.3" font-family="Times,serif" font-size="14.00">def largestElemInFile(#): # # # # #₀</text>
</g>
<!-- 12285994459819902184&#45;&gt;12098252473911357792 -->
<g id="edge1" class="edge">
<title>12285994459819902184&#45;&gt;12098252473911357792</title>
<path fill="none" stroke="black" d="M599.95,-431.7C599.95,-423.98 599.95,-414.71 599.95,-406.11"/>
<polygon fill="black" stroke="black" points="603.45,-406.1 599.95,-396.1 596.45,-406.1 603.45,-406.1"/>
</g>
<!-- 9338916104562458766 -->
<g id="node3" class="node">
<title>9338916104562458766</title>
<polygon fill="none" stroke="black" points="262.45,-324 165.45,-324 165.45,-288 262.45,-288 262.45,-324"/>
<text text-anchor="middle" x="213.95" y="-302.3" font-family="Times,serif" font-size="14.00">with # as #: #₁</text>
</g>
<!-- 12098252473911357792&#45;&gt;9338916104562458766 -->
<g id="edge2" class="edge">
<title>12098252473911357792&#45;&gt;9338916104562458766</title>
<path fill="none" stroke="black" d="M506.01,-359.97C433.19,-346.76 334.55,-328.87 272.58,-317.63"/>
<polygon fill="black" stroke="black" points="273.05,-314.16 262.59,-315.82 271.8,-321.05 273.05,-314.16"/>
</g>
<!-- 12757013669731032310 -->
<g id="node4" class="node">
<title>12757013669731032310</title>
<polygon fill="none" stroke="black" points="420.95,-324 366.95,-324 366.95,-288 420.95,-288 420.95,-324"/>
<text text-anchor="middle" x="393.95" y="-302.3" font-family="Times,serif" font-size="14.00"># = #₂</text>
</g>
<!-- 12098252473911357792&#45;&gt;12757013669731032310 -->
<g id="edge3" class="edge">
<title>12098252473911357792&#45;&gt;12757013669731032310</title>
<path fill="none" stroke="black" d="M549.82,-359.97C513.12,-347.5 464.14,-330.85 430.95,-319.57"/>
<polygon fill="black" stroke="black" points="431.79,-316.16 421.19,-316.26 429.53,-322.79 431.79,-316.16"/>
</g>
<!-- 11284821717584883379 -->
<g id="node5" class="node">
<title>11284821717584883379</title>
<polygon fill="none" stroke="black" points="584.95,-324 530.95,-324 530.95,-288 584.95,-288 584.95,-324"/>
<text text-anchor="middle" x="557.95" y="-302.3" font-family="Times,serif" font-size="14.00"># = #₃</text>
</g>
<!-- 12098252473911357792&#45;&gt;11284821717584883379 -->
<g id="edge4" class="edge">
<title>12098252473911357792&#45;&gt;11284821717584883379</title>
<path fill="none" stroke="black" d="M589.57,-359.7C584.68,-351.56 578.76,-341.69 573.37,-332.7"/>
<polygon fill="black" stroke="black" points="576.36,-330.88 568.21,-324.1 570.35,-334.48 576.36,-330.88"/>
</g>
<!-- 11731355416421571835 -->
<g id="node6" class="node">
<title>11731355416421571835</title>
<polygon fill="none" stroke="black" points="670.45,-324 605.45,-324 605.45,-288 670.45,-288 670.45,-324"/>
<text text-anchor="middle" x="637.95" y="-302.3" font-family="Times,serif" font-size="14.00">return #₅</text>
</g>
<!-- 12098252473911357792&#45;&gt;11731355416421571835 -->
<g id="edge5" class="edge">
<title>12098252473911357792&#45;&gt;11731355416421571835</title>
<path fill="none" stroke="black" d="M609.34,-359.7C613.71,-351.64 619,-341.89 623.84,-332.98"/>
<polygon fill="black" stroke="black" points="626.97,-334.56 628.66,-324.1 620.82,-331.22 626.97,-334.56"/>
</g>
<!-- 12909915286490744085 -->
<g id="node7" class="node">
<title>12909915286490744085</title>
<polygon fill="none" stroke="black" points="746.45,-324 691.45,-324 691.45,-288 746.45,-288 746.45,-324"/>
<text text-anchor="middle" x="718.95" y="-302.3" font-family="Times,serif" font-size="14.00">file: #₀</text>
</g>
<!-- 12098252473911357792&#45;&gt;12909915286490744085 -->
<g id="edge6" class="edge">
<title>12098252473911357792&#45;&gt;12909915286490744085</title>
<path fill="none" stroke="black" d="M629.06,-359.88C645.23,-350.36 665.5,-338.44 682.69,-328.33"/>
<polygon fill="black" stroke="black" points="684.52,-331.31 691.36,-323.23 680.97,-325.28 684.52,-331.31"/>
</g>
<!-- 13108343671913073891 -->
<g id="node8" class="node">
<title>13108343671913073891</title>
<polygon fill="none" stroke="black" points="820.95,-324 766.95,-324 766.95,-288 820.95,-288 820.95,-324"/>
<text text-anchor="middle" x="793.95" y="-302.3" font-family="Times,serif" font-size="14.00">#(#)₄</text>
</g>
<!-- 12098252473911357792&#45;&gt;13108343671913073891 -->
<g id="edge7" class="edge">
<title>12098252473911357792&#45;&gt;13108343671913073891</title>
<path fill="none" stroke="black" d="M653.42,-359.91C683.47,-350.01 721.54,-336.97 754.95,-324 755.79,-323.67 756.64,-323.34 757.5,-323"/>
<polygon fill="black" stroke="black" points="758.87,-326.22 766.79,-319.17 756.21,-319.74 758.87,-326.22"/>
</g>
<!-- 13632722659795508216 -->
<g id="node9" class="node">
<title>13632722659795508216</title>
<polygon fill="none" stroke="black" points="127.95,-252 73.95,-252 73.95,-216 127.95,-216 127.95,-252"/>
<text text-anchor="middle" x="100.95" y="-230.3" font-family="Times,serif" font-size="14.00"># = #₂</text>
</g>
<!-- 9338916104562458766&#45;&gt;13632722659795508216 -->
<g id="edge8" class="edge">
<title>9338916104562458766&#45;&gt;13632722659795508216</title>
<path fill="none" stroke="black" d="M186.3,-287.88C171.42,-278.66 152.88,-267.17 136.89,-257.26"/>
<polygon fill="black" stroke="black" points="138.65,-254.24 128.31,-251.95 134.96,-260.19 138.65,-254.24"/>
</g>
<!-- 12638613935089313644 -->
<g id="node10" class="node">
<title>12638613935089313644</title>
<polygon fill="none" stroke="black" points="204.95,-252 150.95,-252 150.95,-216 204.95,-216 204.95,-252"/>
<text text-anchor="middle" x="177.95" y="-230.3" font-family="Times,serif" font-size="14.00">#(#)₀</text>
</g>
<!-- 9338916104562458766&#45;&gt;12638613935089313644 -->
<g id="edge9" class="edge">
<title>9338916104562458766&#45;&gt;12638613935089313644</title>
<path fill="none" stroke="black" d="M205.05,-287.7C200.95,-279.73 196,-270.1 191.45,-261.26"/>
<polygon fill="black" stroke="black" points="194.43,-259.4 186.74,-252.1 188.21,-262.6 194.43,-259.4"/>
</g>
<!-- 12287524561926849266 -->
<g id="node11" class="node">
<title>12287524561926849266</title>
<ellipse fill="none" stroke="black" cx="249.95" cy="-234" rx="27" ry="18"/>
<text text-anchor="middle" x="249.95" y="-230.3" font-family="Times,serif" font-size="14.00">fp₁</text>
</g>
<!-- 9338916104562458766&#45;&gt;12287524561926849266 -->
<g id="edge10" class="edge">
<title>9338916104562458766&#45;&gt;12287524561926849266</title>
<path fill="none" stroke="black" d="M222.85,-287.7C227.11,-279.4 232.3,-269.31 236.99,-260.19"/>
<polygon fill="black" stroke="black" points="240.18,-261.64 241.64,-251.14 233.96,-258.44 240.18,-261.64"/>
</g>
<!-- 11314145585035674708 -->
<g id="node12" class="node">
<title>11314145585035674708</title>
<ellipse fill="none" stroke="black" cx="321.95" cy="-234" rx="27" ry="18"/>
<text text-anchor="middle" x="321.95" y="-230.3" font-family="Times,serif" font-size="14.00">inp₀</text>
</g>
<!-- 12757013669731032310&#45;&gt;11314145585035674708 -->
<g id="edge11" class="edge">
<title>12757013669731032310&#45;&gt;11314145585035674708</title>
<path fill="none" stroke="black" d="M376.15,-287.7C366.46,-278.28 354.38,-266.53 344.09,-256.53"/>
<polygon fill="black" stroke="black" points="346.24,-253.74 336.63,-249.28 341.36,-258.76 346.24,-253.74"/>
</g>
<!-- 12301283412839657580 -->
<g id="node13" class="node">
<title>12301283412839657580</title>
<polygon fill="none" stroke="black" points="420.95,-252 366.95,-252 366.95,-216 420.95,-216 420.95,-252"/>
<text text-anchor="middle" x="393.95" y="-230.3" font-family="Times,serif" font-size="14.00">#()₁</text>
</g>
<!-- 12757013669731032310&#45;&gt;12301283412839657580 -->
<g id="edge12" class="edge">
<title>12757013669731032310&#45;&gt;12301283412839657580</title>
<path fill="none" stroke="black" d="M393.95,-287.7C393.95,-279.98 393.95,-270.71 393.95,-262.11"/>
<polygon fill="black" stroke="black" points="397.45,-262.1 393.95,-252.1 390.45,-262.1 397.45,-262.1"/>
</g>
<!-- 13478840733801040491 -->
<g id="node14" class="node">
<title>13478840733801040491</title>
<ellipse fill="none" stroke="black" cx="465.95" cy="-234" rx="27" ry="18"/>
<text text-anchor="middle" x="465.95" y="-230.3" font-family="Times,serif" font-size="14.00">inp₀</text>
</g>
<!-- 11284821717584883379&#45;&gt;13478840733801040491 -->
<g id="edge13" class="edge">
<title>11284821717584883379&#45;&gt;13478840733801040491</title>
<path fill="none" stroke="black" d="M535.21,-287.7C521.9,-277.57 505.07,-264.76 491.33,-254.31"/>
<polygon fill="black" stroke="black" points="493.31,-251.42 483.23,-248.15 489.07,-256.99 493.31,-251.42"/>
</g>
<!-- 11252937559613219416 -->
<g id="node15" class="node">
<title>11252937559613219416</title>
<polygon fill="none" stroke="black" points="604.45,-252 511.45,-252 511.45,-216 604.45,-216 604.45,-252"/>
<text text-anchor="middle" x="557.95" y="-230.3" font-family="Times,serif" font-size="14.00">[# for # in #]₁</text>
</g>
<!-- 11284821717584883379&#45;&gt;11252937559613219416 -->
<g id="edge14" class="edge">
<title>11284821717584883379&#45;&gt;11252937559613219416</title>
<path fill="none" stroke="black" d="M557.95,-287.7C557.95,-279.98 557.95,-270.71 557.95,-262.11"/>
<polygon fill="black" stroke="black" points="561.45,-262.1 557.95,-252.1 554.45,-262.1 561.45,-262.1"/>
</g>
<!-- 12297334738002215746 -->
<g id="node16" class="node">
<title>12297334738002215746</title>
<polygon fill="none" stroke="black" points="676.95,-252 622.95,-252 622.95,-216 676.95,-216 676.95,-252"/>
<text text-anchor="middle" x="649.95" y="-230.3" font-family="Times,serif" font-size="14.00">#[#]₀</text>
</g>
<!-- 11731355416421571835&#45;&gt;12297334738002215746 -->
<g id="edge15" class="edge">
<title>11731355416421571835&#45;&gt;12297334738002215746</title>
<path fill="none" stroke="black" d="M640.91,-287.7C642.24,-279.98 643.83,-270.71 645.3,-262.11"/>
<polygon fill="black" stroke="black" points="648.78,-262.55 647.02,-252.1 641.88,-261.37 648.78,-262.55"/>
</g>
<!-- 11964312788369431343 -->
<g id="node17" class="node">
<title>11964312788369431343</title>
<ellipse fill="none" stroke="black" cx="721.95" cy="-234" rx="27" ry="18"/>
<text text-anchor="middle" x="721.95" y="-230.3" font-family="Times,serif" font-size="14.00">str₀</text>
</g>
<!-- 12909915286490744085&#45;&gt;11964312788369431343 -->
<g id="edge16" class="edge">
<title>12909915286490744085&#45;&gt;11964312788369431343</title>
<path fill="none" stroke="black" d="M719.69,-287.7C720.02,-279.98 720.42,-270.71 720.79,-262.11"/>
<polygon fill="black" stroke="black" points="724.28,-262.25 721.21,-252.1 717.29,-261.95 724.28,-262.25"/>
</g>
<!-- 11445973991285758397 -->
<g id="node24" class="node">
<title>11445973991285758397</title>
<polygon fill="none" stroke="black" points="820.95,-252 766.95,-252 766.95,-216 820.95,-216 820.95,-252"/>
<text text-anchor="middle" x="793.95" y="-230.3" font-family="Times,serif" font-size="14.00">#.sort₀</text>
</g>
<!-- 13108343671913073891&#45;&gt;11445973991285758397 -->
<g id="edge23" class="edge">
<title>13108343671913073891&#45;&gt;11445973991285758397</title>
<path fill="none" stroke="black" d="M793.95,-287.7C793.95,-279.98 793.95,-270.71 793.95,-262.11"/>
<polygon fill="black" stroke="black" points="797.45,-262.1 793.95,-252.1 790.45,-262.1 797.45,-262.1"/>
</g>
<!-- 11425095430103143998 -->
<g id="node25" class="node">
<title>11425095430103143998</title>
<polygon fill="none" stroke="black" points="916.45,-252 839.45,-252 839.45,-216 916.45,-216 916.45,-252"/>
<text text-anchor="middle" x="877.95" y="-230.3" font-family="Times,serif" font-size="14.00">reverse=#₁</text>
</g>
<!-- 13108343671913073891&#45;&gt;11425095430103143998 -->
<g id="edge24" class="edge">
<title>13108343671913073891&#45;&gt;11425095430103143998</title>
<path fill="none" stroke="black" d="M814.71,-287.7C825.19,-278.97 838.06,-268.24 849.45,-258.75"/>
<polygon fill="black" stroke="black" points="851.98,-261.19 857.42,-252.1 847.5,-255.82 851.98,-261.19"/>
</g>
<!-- 11846066279777840969 -->
<g id="node18" class="node">
<title>11846066279777840969</title>
<ellipse fill="none" stroke="black" cx="27.95" cy="-162" rx="27.9" ry="18"/>
<text text-anchor="middle" x="27.95" y="-158.3" font-family="Times,serif" font-size="14.00">line₀</text>
</g>
<!-- 13632722659795508216&#45;&gt;11846066279777840969 -->
<g id="edge17" class="edge">
<title>13632722659795508216&#45;&gt;11846066279777840969</title>
<path fill="none" stroke="black" d="M82.9,-215.7C72.98,-206.18 60.59,-194.3 50.09,-184.23"/>
<polygon fill="black" stroke="black" points="52.48,-181.67 42.84,-177.28 47.63,-186.73 52.48,-181.67"/>
</g>
<!-- 13735978300220240443 -->
<g id="node19" class="node">
<title>13735978300220240443</title>
<polygon fill="none" stroke="black" points="127.95,-180 73.95,-180 73.95,-144 127.95,-144 127.95,-180"/>
<text text-anchor="middle" x="100.95" y="-158.3" font-family="Times,serif" font-size="14.00">#()₁</text>
</g>
<!-- 13632722659795508216&#45;&gt;13735978300220240443 -->
<g id="edge18" class="edge">
<title>13632722659795508216&#45;&gt;13735978300220240443</title>
<path fill="none" stroke="black" d="M100.95,-215.7C100.95,-207.98 100.95,-198.71 100.95,-190.11"/>
<polygon fill="black" stroke="black" points="104.45,-190.1 100.95,-180.1 97.45,-190.1 104.45,-190.1"/>
</g>
<!-- 11799496810320744781 -->
<g id="node28" class="node">
<title>11799496810320744781</title>
<ellipse fill="none" stroke="black" cx="177.95" cy="-162" rx="31.7" ry="18"/>
<text text-anchor="middle" x="177.95" y="-158.3" font-family="Times,serif" font-size="14.00">open₀</text>
</g>
<!-- 12638613935089313644&#45;&gt;11799496810320744781 -->
<g id="edge27" class="edge">
<title>12638613935089313644&#45;&gt;11799496810320744781</title>
<path fill="none" stroke="black" d="M177.95,-215.7C177.95,-207.98 177.95,-198.71 177.95,-190.11"/>
<polygon fill="black" stroke="black" points="181.45,-190.1 177.95,-180.1 174.45,-190.1 181.45,-190.1"/>
</g>
<!-- 12764880985974283118 -->
<g id="node29" class="node">
<title>12764880985974283118</title>
<ellipse fill="none" stroke="black" cx="254.95" cy="-162" rx="27" ry="18"/>
<text text-anchor="middle" x="254.95" y="-158.3" font-family="Times,serif" font-size="14.00">file₁</text>
</g>
<!-- 12638613935089313644&#45;&gt;12764880985974283118 -->
<g id="edge28" class="edge">
<title>12638613935089313644&#45;&gt;12764880985974283118</title>
<path fill="none" stroke="black" d="M196.98,-215.7C207.45,-206.18 220.51,-194.3 231.59,-184.23"/>
<polygon fill="black" stroke="black" points="234.2,-186.6 239.24,-177.28 229.49,-181.42 234.2,-186.6"/>
</g>
<!-- 12731698584896018593 -->
<g id="node20" class="node">
<title>12731698584896018593</title>
<polygon fill="none" stroke="black" points="386.95,-180 330.95,-180 330.95,-144 386.95,-144 386.95,-180"/>
<text text-anchor="middle" x="358.95" y="-158.3" font-family="Times,serif" font-size="14.00">#.split₀</text>
</g>
<!-- 12301283412839657580&#45;&gt;12731698584896018593 -->
<g id="edge19" class="edge">
<title>12301283412839657580&#45;&gt;12731698584896018593</title>
<path fill="none" stroke="black" d="M385.3,-215.7C381.31,-207.73 376.5,-198.1 372.08,-189.26"/>
<polygon fill="black" stroke="black" points="375.1,-187.48 367.5,-180.1 368.84,-190.61 375.1,-187.48"/>
</g>
<!-- 9384370732053993451 -->
<g id="node21" class="node">
<title>9384370732053993451</title>
<polygon fill="none" stroke="black" points="458.95,-180 404.95,-180 404.95,-144 458.95,-144 458.95,-180"/>
<text text-anchor="middle" x="431.95" y="-158.3" font-family="Times,serif" font-size="14.00">#(#)₀</text>
</g>
<!-- 11252937559613219416&#45;&gt;9384370732053993451 -->
<g id="edge20" class="edge">
<title>11252937559613219416&#45;&gt;9384370732053993451</title>
<path fill="none" stroke="black" d="M527.12,-215.88C509.22,-205.93 486.57,-193.35 467.86,-182.95"/>
<polygon fill="black" stroke="black" points="469.47,-179.84 459.03,-178.05 466.07,-185.96 469.47,-179.84"/>
</g>
<!-- 12062713063667532089 -->
<g id="node22" class="node">
<title>12062713063667532089</title>
<ellipse fill="none" stroke="black" cx="503.95" cy="-162" rx="27" ry="18"/>
<text text-anchor="middle" x="503.95" y="-158.3" font-family="Times,serif" font-size="14.00">i₁</text>
</g>
<!-- 11252937559613219416&#45;&gt;12062713063667532089 -->
<g id="edge21" class="edge">
<title>11252937559613219416&#45;&gt;12062713063667532089</title>
<path fill="none" stroke="black" d="M544.6,-215.7C537.84,-206.93 529.52,-196.15 522.18,-186.63"/>
<polygon fill="black" stroke="black" points="524.92,-184.45 516.04,-178.67 519.37,-188.73 524.92,-184.45"/>
</g>
<!-- 12411863252781831194 -->
<g id="node23" class="node">
<title>12411863252781831194</title>
<ellipse fill="none" stroke="black" cx="576.95" cy="-162" rx="27.9" ry="18"/>
<text text-anchor="middle" x="576.95" y="-158.3" font-family="Times,serif" font-size="14.00">line₂</text>
</g>
<!-- 11252937559613219416&#45;&gt;12411863252781831194 -->
<g id="edge22" class="edge">
<title>11252937559613219416&#45;&gt;12411863252781831194</title>
<path fill="none" stroke="black" d="M562.64,-215.7C564.76,-207.9 567.31,-198.51 569.67,-189.83"/>
<polygon fill="black" stroke="black" points="573.06,-190.67 572.3,-180.1 566.31,-188.84 573.06,-190.67"/>
</g>
<!-- 12334590992007211278 -->
<g id="node26" class="node">
<title>12334590992007211278</title>
<ellipse fill="none" stroke="black" cx="649.95" cy="-162" rx="27" ry="18"/>
<text text-anchor="middle" x="649.95" y="-158.3" font-family="Times,serif" font-size="14.00">inp₀</text>
</g>
<!-- 12297334738002215746&#45;&gt;12334590992007211278 -->
<g id="edge25" class="edge">
<title>12297334738002215746&#45;&gt;12334590992007211278</title>
<path fill="none" stroke="black" d="M649.95,-215.7C649.95,-207.98 649.95,-198.71 649.95,-190.11"/>
<polygon fill="black" stroke="black" points="653.45,-190.1 649.95,-180.1 646.45,-190.1 653.45,-190.1"/>
</g>
<!-- 11386241839722437760 -->
<g id="node27" class="node">
<title>11386241839722437760</title>
<ellipse fill="none" stroke="black" cx="721.95" cy="-162" rx="27" ry="18"/>
<text text-anchor="middle" x="721.95" y="-158.3" font-family="Times,serif" font-size="14.00">0₁</text>
</g>
<!-- 12297334738002215746&#45;&gt;11386241839722437760 -->
<g id="edge26" class="edge">
<title>12297334738002215746&#45;&gt;11386241839722437760</title>
<path fill="none" stroke="black" d="M667.75,-215.7C677.44,-206.28 689.51,-194.53 699.81,-184.53"/>
<polygon fill="black" stroke="black" points="702.53,-186.76 707.26,-177.28 697.65,-181.74 702.53,-186.76"/>
</g>
<!-- 10692523507816611786 -->
<g id="node30" class="node">
<title>10692523507816611786</title>
<polygon fill="none" stroke="black" points="128.95,-108 72.95,-108 72.95,-72 128.95,-72 128.95,-108"/>
<text text-anchor="middle" x="100.95" y="-86.3" font-family="Times,serif" font-size="14.00">#.read₀</text>
</g>
<!-- 13735978300220240443&#45;&gt;10692523507816611786 -->
<g id="edge29" class="edge">
<title>13735978300220240443&#45;&gt;10692523507816611786</title>
<path fill="none" stroke="black" d="M100.95,-143.7C100.95,-135.98 100.95,-126.71 100.95,-118.11"/>
<polygon fill="black" stroke="black" points="104.45,-118.1 100.95,-108.1 97.45,-118.1 104.45,-118.1"/>
</g>
<!-- 9666633922363755572 -->
<g id="node31" class="node">
<title>9666633922363755572</title>
<ellipse fill="none" stroke="black" cx="358.95" cy="-90" rx="27.9" ry="18"/>
<text text-anchor="middle" x="358.95" y="-86.3" font-family="Times,serif" font-size="14.00">line₀</text>
</g>
<!-- 12731698584896018593&#45;&gt;9666633922363755572 -->
<g id="edge30" class="edge">
<title>12731698584896018593&#45;&gt;9666633922363755572</title>
<path fill="none" stroke="black" d="M358.95,-143.7C358.95,-135.98 358.95,-126.71 358.95,-118.11"/>
<polygon fill="black" stroke="black" points="362.45,-118.1 358.95,-108.1 355.45,-118.1 362.45,-118.1"/>
</g>
<!-- 9969115910323868373 -->
<g id="node32" class="node">
<title>9969115910323868373</title>
<ellipse fill="none" stroke="black" cx="431.95" cy="-90" rx="27" ry="18"/>
<text text-anchor="middle" x="431.95" y="-86.3" font-family="Times,serif" font-size="14.00">int₀</text>
</g>
<!-- 9384370732053993451&#45;&gt;9969115910323868373 -->
<g id="edge31" class="edge">
<title>9384370732053993451&#45;&gt;9969115910323868373</title>
<path fill="none" stroke="black" d="M431.95,-143.7C431.95,-135.98 431.95,-126.71 431.95,-118.11"/>
<polygon fill="black" stroke="black" points="435.45,-118.1 431.95,-108.1 428.45,-118.1 435.45,-118.1"/>
</g>
<!-- 10108400713944204775 -->
<g id="node33" class="node">
<title>10108400713944204775</title>
<ellipse fill="none" stroke="black" cx="503.95" cy="-90" rx="27" ry="18"/>
<text text-anchor="middle" x="503.95" y="-86.3" font-family="Times,serif" font-size="14.00">i₁</text>
</g>
<!-- 9384370732053993451&#45;&gt;10108400713944204775 -->
<g id="edge32" class="edge">
<title>9384370732053993451&#45;&gt;10108400713944204775</title>
<path fill="none" stroke="black" d="M449.75,-143.7C459.44,-134.28 471.51,-122.53 481.81,-112.53"/>
<polygon fill="black" stroke="black" points="484.53,-114.76 489.26,-105.28 479.65,-109.74 484.53,-114.76"/>
</g>
<!-- 10551268583178419084 -->
<g id="node34" class="node">
<title>10551268583178419084</title>
<ellipse fill="none" stroke="black" cx="793.95" cy="-162" rx="27" ry="18"/>
<text text-anchor="middle" x="793.95" y="-158.3" font-family="Times,serif" font-size="14.00">inp₀</text>
</g>
<!-- 11445973991285758397&#45;&gt;10551268583178419084 -->
<g id="edge33" class="edge">
<title>11445973991285758397&#45;&gt;10551268583178419084</title>
<path fill="none" stroke="black" d="M793.95,-215.7C793.95,-207.98 793.95,-198.71 793.95,-190.11"/>
<polygon fill="black" stroke="black" points="797.45,-190.1 793.95,-180.1 790.45,-190.1 797.45,-190.1"/>
</g>
<!-- 10904850333243660412 -->
<g id="node35" class="node">
<title>10904850333243660412</title>
<ellipse fill="none" stroke="black" cx="877.95" cy="-162" rx="31.4" ry="18"/>
<text text-anchor="middle" x="877.95" y="-158.3" font-family="Times,serif" font-size="14.00">True₀</text>
</g>
<!-- 11425095430103143998&#45;&gt;10904850333243660412 -->
<g id="edge34" class="edge">
<title>11425095430103143998&#45;&gt;10904850333243660412</title>
<path fill="none" stroke="black" d="M877.95,-215.7C877.95,-207.98 877.95,-198.71 877.95,-190.11"/>
<polygon fill="black" stroke="black" points="881.45,-190.1 877.95,-180.1 874.45,-190.1 881.45,-190.1"/>
</g>
<!-- 9460150098835121844 -->
<g id="node36" class="node">
<title>9460150098835121844</title>
<ellipse fill="none" stroke="black" cx="100.95" cy="-18" rx="27" ry="18"/>
<text text-anchor="middle" x="100.95" y="-14.3" font-family="Times,serif" font-size="14.00">fp₀</text>
</g>
<!-- 10692523507816611786&#45;&gt;9460150098835121844 -->
<g id="edge35" class="edge">
<title>10692523507816611786&#45;&gt;9460150098835121844</title>
<path fill="none" stroke="black" d="M100.95,-71.7C100.95,-63.98 100.95,-54.71 100.95,-46.11"/>
<polygon fill="black" stroke="black" points="104.45,-46.1 100.95,-36.1 97.45,-46.1 104.45,-46.1"/>
</g>
</g>
</svg>
